<svg id="Capa_1" data-name="Capa 1" xmlns="http://www.w3.org/2000/svg" viewBox="0 0 422.98 323.57"><defs><style>.cls-1{fill:#422775;}.cls-2{fill:#432776;}</style></defs><title>logoMorado</title><path class="cls-1" d="M87.3,21.09a2.69,2.69,0,0,0,1.18-.73L99.67,8.59l2.67-2.8a79.62,79.62,0,0,1,8.74,22.69c.36,1.64.63,3.34.9,5,.13.79.26,1.58.4,2.37a2,2,0,0,0,2,1.8l.38,0a2,2,0,0,0,1.67-2.45c-.1-.6-.2-1.19-.29-1.79-.24-1.53-.49-3.11-.81-4.66A84.39,84.39,0,0,0,104.65,1.6,2.31,2.31,0,0,0,103,.34a2.36,2.36,0,0,0-1.94.88L88.56,14.32l-3.13,3.29a2.11,2.11,0,0,0-.38,2.5A2,2,0,0,0,87.3,21.09Z" transform="translate(0 -0.33)"/><path class="cls-1" d="M28.82,37.62l.33,0a2,2,0,0,0,2-1.84c.09-.54.17-1.09.25-1.64.17-1.1.34-2.23.55-3.33a80.48,80.48,0,0,1,7.09-21c.59-1.18,1.22-2.34,1.88-3.54.08-.16.17-.32.26-.48l14,14.69a2.07,2.07,0,0,0,2.47.5,2,2,0,0,0,1.08-2.27A2.65,2.65,0,0,0,58,17.56q-2.32-2.47-4.67-4.93L42.5,1.19A2.35,2.35,0,0,0,40.59.34a2.3,2.3,0,0,0-1.7,1.25l-.17.26A85.88,85.88,0,0,0,27.09,35.21,2.09,2.09,0,0,0,28.82,37.62Z" transform="translate(0 -0.33)"/><path class="cls-1" d="M53.83,39h-.06A6.7,6.7,0,0,0,49,50.4a6.57,6.57,0,0,0,4.69,2h0A6.68,6.68,0,0,0,58.53,41,6.62,6.62,0,0,0,53.83,39Z" transform="translate(0 -0.33)"/><path class="cls-1" d="M96.46,45.73A6.7,6.7,0,0,0,89.83,39a6.77,6.77,0,0,0-4.74,1.92A6.68,6.68,0,0,0,89.7,52.39h0A6.64,6.64,0,0,0,96.46,45.73Z" transform="translate(0 -0.33)"/><path class="cls-1" d="M78,66.65l-.53-.13a10.18,10.18,0,0,1-1.06-.3A5.62,5.62,0,0,1,73,62.38a7.49,7.49,0,0,0,2.7-4.07,2.74,2.74,0,0,0-1.92-3.63,9.38,9.38,0,0,0-2-.41,7.12,7.12,0,0,0-4.31.8,2.86,2.86,0,0,0-1.36,3.64,9.26,9.26,0,0,0,2.34,3.44,1.56,1.56,0,0,0,.2.16,1.34,1.34,0,0,0-.07.18,1.46,1.46,0,0,1-.07.19A5.45,5.45,0,0,1,65.64,66a9.33,9.33,0,0,1-1.38.44l-.67.19A1.62,1.62,0,0,0,63,69.57a1.76,1.76,0,0,0,1.29.26,8.94,8.94,0,0,0,6.17-4c.11-.18.22-.36.32-.54a9.06,9.06,0,0,0,6.45,4.49,2.32,2.32,0,0,0,.44,0,1.62,1.62,0,0,0,1.51-2.25A1.8,1.8,0,0,0,78,66.65Z" transform="translate(0 -0.33)"/><path class="cls-1" d="M52.07,62.82h0a1.55,1.55,0,0,0,.5-2.63,3,3,0,0,0-.3-.18,1.6,1.6,0,0,0-.54-2.83l-.15,0c-.19-.06-.39-.12-.58-.16l-4-.74c-3.22-.62-6.56-1.25-9.86-1.79s-6.69-.88-9.69-1.18c-2.12-.22-4.28-.38-6.37-.54l-2.8-.21h-1v0h0l-2.5-.1a1.63,1.63,0,1,0-.14,3.26h.46l1.92.07c1.38,0,2.81.1,4.2.22,5,.45,9.07.86,12.76,1.28,4,.47,8.32,1.2,13.65,2.31l.63.13h-.38c-1.47,0-2.95-.05-4.48,0-2.76,0-5.61,0-8.41.1s-5.57.22-8,.41c-3,.22-6,.49-9,.76l-3.42.3A1.65,1.65,0,0,0,12.85,63a1.56,1.56,0,0,0,.55,1.08,1.71,1.71,0,0,0,1.14.39l.24,0,2-.19c1.5-.16,3-.31,4.48-.43,3.07-.26,5.42-.43,7.6-.56,1.66-.1,3.32-.16,5-.21l1.5,0L39,62.91l3.34,0H46l3.18,0h.42l-2.6.34c-1.89.25-3.85.5-5.77.83C37,64.82,32.49,65.58,28,66.54c-3.67.78-7.36,1.69-10.94,2.57l-4.43,1.07a1.82,1.82,0,0,0-1.2.82,1.62,1.62,0,0,0,1.42,2.42,2.52,2.52,0,0,0,.58-.08c7.08-1.91,14.1-3.51,20.85-4.75,2.38-.44,4.52-.83,6.68-1.16,2.47-.38,5-.73,7.42-1.08l3.11-.45a1.6,1.6,0,0,0,1.6-1.73A1.47,1.47,0,0,0,52.07,62.82Z" transform="translate(0 -0.33)"/><path class="cls-1" d="M130.91,70.19c-6.38-1.73-12.1-3.07-17.5-4.09-4.1-.78-8.28-1.47-12.33-2.12l-2.2-.37c-1.52-.25-3.07-.45-4.56-.65h.61l6.68-.06c1.34,0,2.69,0,4,0l2.85.11,1.28.06h.87l.44,0c.93,0,1.87.09,2.8.16l11.6,1,3.3.28H129a1.57,1.57,0,0,0,1.67-1.39,1.67,1.67,0,0,0-.32-1.22,1.77,1.77,0,0,0-1.25-.64l-1.48-.16c-1.19-.13-2.42-.26-3.64-.35-4.29-.31-8.81-.61-13.44-.89-1.66-.1-3.36-.13-4.94-.15-2.23,0-4.47,0-6.71,0l-3.58,0,1.29-.27c1.31-.28,2.67-.56,4-.78,4-.64,8-1.27,12.07-1.79,2.93-.38,5.93-.62,8.52-.81,1.74-.13,3.52-.2,5.24-.28l2.42-.11a1.78,1.78,0,0,0,1.33-.56,1.53,1.53,0,0,0,.39-1.16,1.62,1.62,0,0,0-1.8-1.54h-3.06v.12l-.39,0c-.94,0-1.89.1-2.83.18l-2.52.2c-2.57.2-5.23.41-7.84.73-3.53.43-7.36,1-11.71,1.74-2,.34-4.06.78-6,1.21l-2.4.52A1.59,1.59,0,0,0,91.26,60a1.35,1.35,0,0,0-.39.28,1.58,1.58,0,0,0-.43,1.18,1.5,1.5,0,0,0,.91,1.36,1.55,1.55,0,0,0-.92,1.24,1.59,1.59,0,0,0,1.49,1.83l1.19.17,2.38.33c1.44.19,2.87.38,4.3.61,3.42.53,6.49,1,9.41,1.56,1.65.29,3.43.65,5.45,1.11q6,1.36,12,2.79c.69.16,1.38.34,2.07.53l1.42.37a1.89,1.89,0,0,0,.47.06,1.66,1.66,0,0,0,1-.33,1.61,1.61,0,0,0,.63-1.23A1.64,1.64,0,0,0,130.91,70.19Z" transform="translate(0 -0.33)"/><path class="cls-2" d="M275.5,118.8H185.93c4.07,16.58,18.9,29.38,36.93,29.38,9.31,0,23-3.78,30.54-11.05a17.46,17.46,0,0,1,24.72.29c7,6.69,6.69,18-.29,24.72-16,15.41-38.39,20.65-55,20.65a72.62,72.62,0,0,1-72.71-73c0-39.85,32.29-73,72.71-73A63.71,63.71,0,0,1,235.66,38c19.77,3.78,36.64,16,47.11,33.45,4.66,8.14,9.89,18.9,9.31,28.5,0,2.62-1.16,5.53-2.33,8.43C287.43,113.86,282.48,118.8,275.5,118.8ZM190.87,89.43h61.66C246.71,78.38,236,72,222.86,72A37.72,37.72,0,0,0,190.87,89.43Z" transform="translate(0 -0.33)"/><path class="cls-2" d="M228.79,284.78a15.92,15.92,0,0,0-21.49-.66,44.36,44.36,0,0,1-29.14,10.48c-23.42,0-42.47-17.48-42.47-39s19.05-39,42.47-39a44.92,44.92,0,0,1,28.64,10,16,16,0,0,0,21.33-.93,13.93,13.93,0,0,0-1-20.89,76.43,76.43,0,0,0-48.93-17.32c-40.38,0-73.23,30.55-73.23,68.09s32.85,68.27,73.23,68.27A77.23,77.23,0,0,0,228,305.72l.07-.07a14.2,14.2,0,0,0,.69-20.87Z" transform="translate(0 -0.33)"/><path class="cls-2" d="M407.63,38.87H319.84c-8.47,0-15.36,6.51-15.36,14.51s6.89,14.68,15.36,14.68h28.35v97c0,8.23,6.83,14.68,15.54,14.68,8.47,0,15.36-6.59,15.36-14.68v-97h28.54c8.46,0,15.35-6.59,15.35-14.68S416.09,38.87,407.63,38.87Z" transform="translate(0 -0.33)"/><path class="cls-2" d="M350.65,266.26c-5.65-20.48-27.15-33.38-29.78-34.89-3.12-2.49-35.1-27-61.69-10.61-3.25,2-7.93,6.3-10.72,8.86l-.56.52c-17.56,16.07-20.24,35.35-8.19,59,11.34,22.21,33.13,29.82,42,32.08A78.81,78.81,0,0,0,301,323.76c19.52,0,34.65-9.13,45.13-27.28C351.9,286.48,353.42,276.31,350.65,266.26Zm-51.5,33.5c-5.94-2.41-9.6-8.95-10-11.94a7,7,0,0,0-1.95-3.71l-.12-.14a10.76,10.76,0,0,0-8.48-3.69,17.21,17.21,0,0,0-3.66.42c-4.37.95-10.59-1.46-14.09-4.33-10.73-8.83-2.91-22.74-2.54-23.37,3.24-5.84,7.55-9.45,12.8-10.74,8.18-2,18,1.85,24.54,6.13,1.71,1.12,4.12,2.4,6.26,3.53l1.87,1c11.83,6.42,18.49,13.86,19.81,22.12,1.65,10.39-5.76,19.16-6.81,20.34C310.38,300.43,304.44,301.9,299.15,299.76Z" transform="translate(0 -0.33)"/><ellipse class="cls-2" cx="286.78" cy="198.15" rx="15.72" ry="18.71" transform="translate(72.16 472.49) rotate(-86.64)"/><ellipse class="cls-2" cx="332.99" cy="210.09" rx="15.72" ry="18.71" transform="translate(-0.5 419.06) rotate(-64.36)"/><ellipse class="cls-2" cx="365.69" cy="245.15" rx="15.72" ry="18.71" transform="matrix(0.8, -0.6, 0.6, 0.8, -73.87, 269.65)"/><path class="cls-2" d="M134.08,41.73a17,17,0,0,0-23,7.57L109.73,52l2.16-.28c2.64-.32,5.31-.53,7.88-.73l2.55-.21,1.48-.1v-.22h4.95a3.64,3.64,0,0,1,2.92,6A3.8,3.8,0,0,1,129,57.68l-2.43.11c-1.75.08-3.5.15-5.19.28-1,.07-2.11.15-3.23.25l6,.42c1.25.08,2.49.22,3.68.35l1.51.17a3.79,3.79,0,0,1,2.61,1.38A3.63,3.63,0,0,1,129,66.49l-.39,0-3.74-.31L122.32,66c2.91.68,5.93,1.45,9.12,2.31h0a3.61,3.61,0,0,1,2.82,3.65,3.57,3.57,0,0,1-1.41,2.77,3.66,3.66,0,0,1-2.2.73,4,4,0,0,1-1-.12L128.35,75l-.1,0c-.68-.18-1.35-.36-2-.52q-6-1.41-12-2.78c-2-.45-3.75-.81-5.36-1.09-2.5-.44-5.13-.88-8-1.33l-29,56.58L43.49,69.09c-.73.1-1.46.2-2.19.32-2.13.32-4.26.71-6.62,1.14C28,71.79,21,73.37,14,75.27a4.22,4.22,0,0,1-1.1.15A3.63,3.63,0,0,1,9.74,70a3.87,3.87,0,0,1,2.47-1.75l4.11-1,.31-.08c1.91-.46,3.85-.94,5.81-1.4l-1,.08c-1.48.13-3,.28-4.45.43l-2,.2a3.69,3.69,0,0,1-2.87-.84,3.52,3.52,0,0,1-1.25-2.46,3.64,3.64,0,0,1,3.45-3.92l3.41-.3c2.37-.21,4.74-.42,7.12-.61L21,58c-1.34-.12-2.74-.17-4.09-.22h-.13L15,57.69h-.5a3.64,3.64,0,1,1,.36-7.26l1.94.08,1.68,0,2.79.21c2.13.16,4.29.32,6.43.54s4.77.48,7.3.83l-2.42-4.84a17.15,17.15,0,0,0-23-7.85A17.4,17.4,0,0,0,1.75,62.67L56.43,171.74a17,17,0,0,0,15.12,9.59h.29A17,17,0,0,0,87,171.74l54.68-107A17.05,17.05,0,0,0,134.08,41.73Z" transform="translate(0 -0.33)"/></svg>