<?xml version="1.0" encoding="utf-8"?>
<!-- Generator: Adobe Illustrator 24.0.0, SVG Export Plug-In . SVG Version: 6.00 Build 0)  -->
<svg version="1.1" id="Capa_1" xmlns="http://www.w3.org/2000/svg" xmlns:xlink="http://www.w3.org/1999/xlink" x="0px" y="0px"
	 viewBox="0 0 86 86" style="enable-background:new 0 0 86 86;" xml:space="preserve">
<style type="text/css">
	.st0{fill:#0D5968;}
	.st1{fill:#FFFFFF;}
</style>
<circle class="st0" cx="43" cy="43" r="43"/>
<circle class="st1" cx="43" cy="43" r="37.2"/>
<g>
	<path class="st0" d="M68.1,34c-0.3,1-0.6,1.9-1.2,2.7c-1.5,1.8-3.4,2.6-5.7,2.1c-2.2-0.5-3.7-1.9-4.4-4c0-0.1,0-0.2-0.1-0.3
		c0-0.1,0-0.2-0.1-0.3c-9.1,0-18.2,0-27.4,0c-0.3,1.5-1,2.7-2.3,3.6c-2.2,1.6-5.2,1.5-7.2-0.4c-2-1.8-2.5-4.8-1.2-7.1
		c0.8-1.3,0.8-2.5,0-3.8c-1.2-2.1-1.1-4.1,0.3-6.1c1.3-1.9,3.2-2.7,5.5-2.4c2.4,0.4,4,1.8,4.7,4.2c0,0.1,0.1,0.3,0.1,0.4
		c9.1,0,18.2,0,27.4,0c0.3-1.3,0.8-2.4,1.8-3.2c1.6-1.4,3.5-1.8,5.6-1.2c2.1,0.7,3.3,2.2,3.9,4.3c0,0.1,0.1,0.2,0.1,0.3
		c0,0.6,0,1.1,0,1.7c-0.4,0.9-0.7,1.8-1.1,2.7c-0.4,0.8-0.4,1.7,0,2.5c0.4,0.9,0.7,1.8,1.1,2.7C68.1,32.9,68.1,33.5,68.1,34z
		 M62.5,36.9c0.1,0,0.4,0,0.7-0.1c2.5-0.6,3.6-3.3,2.4-5.6c-0.4-0.7-0.7-1.5-0.8-2.2c-0.2-1.3,0.2-2.4,0.8-3.5
		c0.8-1.4,0.7-3-0.3-4.2c-1-1.2-2.6-1.7-4-1.2c-1.6,0.6-2.5,1.8-2.6,3.5c0,0.3-0.2,0.7-0.5,0.9c-0.2,0.2-0.6,0.2-0.9,0.2
		c-9.5,0-19,0-28.5,0c-0.1,0-0.3,0-0.4,0c-0.5-0.1-0.8-0.4-0.9-0.9c0-0.2,0-0.3-0.1-0.5c-0.2-1.6-1.3-2.8-2.8-3.2
		c-1.4-0.4-3,0.1-3.9,1.4c-0.9,1.2-1,2.8-0.2,4.2c1.1,1.9,1.1,3.8,0,5.6c-0.5,0.9-0.7,1.9-0.4,2.9c0.5,1.7,2.1,2.9,3.8,2.8
		c1.9-0.1,3.3-1.5,3.5-3.5c0.1-1,0.4-1.3,1.4-1.3c9.5,0,19,0,28.4,0c0.1,0,0.3,0,0.4,0c0.5,0,0.9,0.4,1,0.9c0,0.2,0,0.4,0.1,0.6
		C58.9,35.5,60.5,36.9,62.5,36.9z"/>
	<path class="st0" d="M41.7,68.1c-0.9-0.2-1.7-0.3-2.6-0.5c-6.3-1.9-10.2-6-11.5-12.4c-1.5-7.6,2.9-14.8,9.7-17.5
		c8.9-3.5,19,1.9,21.1,11.3c1.9,8.8-3.7,17.2-12.6,18.9c-0.5,0.1-0.9,0.1-1.4,0.2C43.5,68.1,42.6,68.1,41.7,68.1z M51.6,41.6
		c-2.8-2.2-5.9-3.2-9.4-3c-2.9,0.2-5.5,1.2-7.8,3c2.8,3.1,4.2,6.6,4.2,10.7c0,4.1-1.5,7.6-4.2,10.7c5.2,4.3,12.8,3.8,17.2,0
		C46.6,57.7,45.6,48.2,51.6,41.6z M53.1,43.1c-5.3,5.5-4.4,14.3,0,18.6C58.2,56.4,57.8,47.8,53.1,43.1z M33,43.1
		c-4.9,5-4.9,13.7,0,18.6C37.7,56.8,38,48.4,33,43.1z"/>
</g>
</svg>
