<?xml version="1.0" encoding="utf-8"?>
<!-- Generator: Adobe Illustrator 24.0.0, SVG Export Plug-In . SVG Version: 6.00 Build 0)  -->
<svg version="1.1" id="Capa_1" xmlns="http://www.w3.org/2000/svg" xmlns:xlink="http://www.w3.org/1999/xlink" x="0px" y="0px"
	 viewBox="0 0 86 86" style="enable-background:new 0 0 86 86;" xml:space="preserve">
<style type="text/css">
	.st0{fill:#0D5968;}
	.st1{fill:#FFFFFF;}
</style>
<circle class="st0" cx="43" cy="43" r="43"/>
<circle class="st1" cx="43" cy="43" r="37.2"/>
<g>
	<path class="st0" d="M34.1,69.8c-0.4-0.3-0.5-0.7-0.5-1.2c0-1.1,0-2.2,0-3.3c0-0.2,0-0.4,0-0.6c-1.6-0.2-3.1-0.6-4.4-1.5
		c-2.6-1.8-4.2-4.3-4.3-7.5c-0.1-3.8,0-7.7,0-11.5c0-0.8,0.3-1.6,0.4-2.4c0-0.3,0.1-0.7,0-1c-0.7-2.8-1.5-5.7-2.3-8.5
		c-0.8-3.2,1.9-5.9,5-5.1c1,0.3,2,0.5,3.2,0.8c0-0.9,0-1.8,0-2.7c0-0.9,0-1.8,0-2.7c-0.4,0-0.8,0-1.2,0c-1.4,0-2.9,0-4.3,0
		c-1.7,0-3-1.3-3.2-2.9c-0.2-1.6,0.9-3.1,2.5-3.4c0.1,0,0.3-0.1,0.4-0.1c2.1,0,4.2,0,6.2,0c0.5,0,0.7,0.2,0.8,0.6
		c0.1,0.4-0.1,0.7-0.5,0.9c-0.1,0.1-0.3,0.1-0.5,0.1c-1.9,0-3.8,0-5.7,0c-1.2,0-2,0.9-1.7,2c0.1,0.6,0.6,1.1,1.3,1.2
		c0.2,0,0.4,0,0.6,0c7.1,0,14.2,0,21.3,0c0.2,0,0.4,0,0.6,0c0-1.1,0-2.1,0-3.2c-0.2,0-0.4,0-0.6,0c-4.1,0-8.1,0-12.2,0
		c-0.4,0-0.8-0.1-1-0.5c-0.2-0.5,0.1-1,0.6-1.1c0.1,0,0.2,0,0.3,0c8.4,0,16.7,0,25.1,0c1.6,0,2.9,1.1,3.2,2.8
		c0.2,1.4-0.7,2.9-2.2,3.4c-0.4,0.1-0.8,0.2-1.2,0.2c-1.7,0-3.5,0-5.3,0c0,1.8,0,3.6,0,5.4c1.1-0.3,2.1-0.6,3.2-0.8
		c3.1-0.8,5.8,2,5,5.1c-0.7,2.8-1.5,5.7-2.3,8.5c-0.2,0.8,0.1,1.4,0.2,2.1c0,0.8,0.2,1.5,0.2,2.2c0,3.6,0.1,7.2,0,10.7
		c-0.1,4.1-3.2,7.7-7.2,8.7c-0.5,0.1-0.9,0.2-1.5,0.3c0,0.2,0,0.3,0,0.5c0,1.1,0,2.3,0,3.4c0,0.5-0.1,0.8-0.5,1.2
		C46,69.8,40,69.8,34.1,69.8z M43,33.2c-3.2,0-6.4,0-9.6,0c-0.3,0-0.6,0.1-0.9,0.3c-3.8,3-5.8,7-6,11.9c-0.1,3.3,0,6.7,0,10
		c0,4.1,3.4,7.7,7.5,7.7c5.9,0.1,11.9,0.1,17.8,0c4.1,0,7.5-3.6,7.5-7.7c0-1.9,0-3.9,0-5.8c0-1.8,0.1-3.7-0.1-5.5
		c-0.4-4.3-2.4-7.9-5.8-10.6c-0.2-0.2-0.6-0.3-0.9-0.3C49.4,33.2,46.2,33.2,43,33.2z M48,22.6c-5.1,0-10.1,0-15.1,0c0,3,0,6,0,9
		c6.7,0,13.4,0,20.1,0c0-3,0-6,0-9c-1.1,0-2.3,0-3.4,0c0,1.3,0,2.5,0,3.8c0,0.1,0.1,0.3,0.2,0.4c0.5,0.5,1.1,1.1,1.6,1.6
		c0.4,0.4,0.4,0.9,0.1,1.2c-0.3,0.4-0.8,0.3-1.2-0.1c-0.5-0.5-1-1-1.5-1.5c-0.5,0.6-1,1.1-1.5,1.5c-0.4,0.4-0.9,0.4-1.2,0.1
		c-0.4-0.4-0.3-0.8,0.1-1.2c0.5-0.5,1-1,1.5-1.6c0.1-0.1,0.3-0.3,0.3-0.5C48.1,25.1,48,23.9,48,22.6z M50.8,64.8
		c-5.2,0-10.3,0-15.5,0c0,1.2,0,2.3,0,3.4c5.2,0,10.3,0,15.5,0C50.8,67.1,50.8,66,50.8,64.8z M49.7,20.9c0.2,0,0.3,0,0.4,0
		c3.3,0,6.7,0,10,0c0.1,0,0.3,0,0.4,0c0.6-0.1,1.1-0.6,1.3-1.2c0.2-1.1-0.5-2-1.7-2c-3.3,0-6.6,0-9.9,0c-0.1,0-0.3,0-0.4,0
		C49.7,18.8,49.7,19.8,49.7,20.9z M30.3,33.3c-0.9-0.2-1.8-0.5-2.6-0.7c-0.9-0.2-1.6,0-2.3,0.6c-0.2,0.2-0.3,0.4-0.2,0.7
		c0.3,0.9,0.5,1.8,0.8,2.8c0.2,0.6,0.3,1.2,0.5,2C27.4,36.6,28.7,34.8,30.3,33.3z M59.6,38.6c0.1-0.2,0.1-0.3,0.1-0.3
		c0.4-1.3,0.7-2.7,1.1-4c0.2-0.9,0.1-1.2-0.7-1.5c-0.4-0.2-0.9-0.3-1.3-0.3c-1,0.2-1.9,0.5-3,0.7C57.4,34.8,58.6,36.6,59.6,38.6z
		 M31.3,31.9c0-0.7,0-1.3,0-1.9c0-0.1-0.2-0.4-0.3-0.4c-1.1-0.3-2.2-0.6-3.4-0.9c-1.8-0.4-3.3,1.2-3,3c0.1,0,0.1-0.1,0.2-0.1
		c1.1-0.7,2.2-0.8,3.5-0.5C29.3,31.4,30.3,31.6,31.3,31.9z M61.4,31.7c0.4-1.7-1.1-3.4-2.9-3c-1.2,0.2-2.3,0.6-3.5,0.9
		c-0.1,0-0.3,0.2-0.3,0.3c0,0.7,0,1.3,0,2c0.9-0.2,1.7-0.4,2.5-0.7C58.7,30.8,60.1,30.8,61.4,31.7z"/>
	<path class="st0" d="M47,49c-1,1.5-1.4,3.3-3,4.2c0.1,0.8,1,1.7,2,1.9c0.1,0,0.2,0,0.4,0c0.5,0.1,0.9,0.4,0.8,0.9
		c0,0.5-0.5,0.8-1,0.7c-1.1-0.1-2-0.5-2.8-1.3c-0.1-0.1-0.2-0.2-0.3-0.3c-0.6,0.4-1,0.9-1.6,1.2c-0.5,0.2-1,0.3-1.5,0.4
		c-0.6,0.1-1-0.2-1.1-0.7c0-0.5,0.3-0.8,0.9-0.9c1.1-0.1,1.9-0.6,2.3-1.6c0-0.1,0-0.2,0.1-0.2c-1.2-0.9-2.5-2.6-3-4.3
		c-0.4,0.1-0.8,0.2-1.2,0.3c-2.2,0.9-3.5,3.3-3.1,5.5c0.5,2.5,2.4,4.2,4.9,4.3c2.2,0,4.4,0,6.6,0c0.8,0,1.6-0.2,2.4-0.6
		c0.6-0.3,1-0.2,1.2,0.3c0.3,0.5,0.1,0.9-0.5,1.2c-0.9,0.5-1.9,0.8-2.9,0.8c-2.5,0-5,0.1-7.5-0.1c-2.9-0.2-5.5-2.9-5.8-5.8
		c-0.4-3.9,2.4-7.1,5.9-7.5c0.1,0,0.3-0.2,0.4-0.3c0.6-0.9,1.4-1.3,2.4-1.3c0.8,0,1.5,0,2.3,0c1,0,1.7,0.4,2.3,1.2
		c0.1,0.2,0.4,0.3,0.6,0.3c4.6,0.7,7.2,5.5,5.2,9.6c0,0.1-0.1,0.2-0.1,0.3c-0.3,0.5-0.7,0.6-1.1,0.4c-0.4-0.2-0.6-0.7-0.3-1.2
		c0.5-0.9,0.7-1.9,0.6-2.9C51.2,51.3,49.1,49,47,49z M43,47.3L43,47.3c-0.4,0-0.8,0-1.3,0c-0.9,0.1-1.4,0.9-0.9,1.7
		c0.4,0.7,0.8,1.3,1.1,2c0.5,0.9,1.5,0.9,2,0c0.4-0.6,0.8-1.3,1.1-1.9c0.5-0.9,0-1.7-1-1.8C43.8,47.3,43.4,47.3,43,47.3z"/>
	<path class="st0" d="M48.8,45.3c0.3-0.7,0.4-1.3,0.8-1.8c0.5-0.7,1.3-0.7,1.8,0c0.8,1,0.8,2.8,0,3.8c-0.6,0.7-1.4,0.7-1.9,0
		C49.2,46.6,49.1,46,48.8,45.3z"/>
	<path class="st0" d="M37,45.3c0,0.7-0.2,1.4-0.6,1.9c-0.5,0.7-1.2,0.7-1.8,0c-0.8-0.9-0.8-3,0-3.9c0.5-0.6,1.2-0.6,1.8,0
		C36.9,44,37,44.6,37,45.3z"/>
</g>
</svg>
