<svg id="Capa_1" data-name="Capa 1" xmlns="http://www.w3.org/2000/svg" viewBox="0 0 422.98 325.15"><defs><style>.cls-1,.cls-3,.cls-4{fill:#fff;}.cls-2{fill:none;stroke:#432776;stroke-width:5px;}.cls-2,.cls-3,.cls-4{stroke-miterlimit:10;}.cls-3,.cls-4{stroke:#fff;}.cls-3{stroke-width:9px;}.cls-4{stroke-width:2px;}</style></defs><title>logoBlanco</title><path class="cls-1" d="M71.84,182.58h-.29A17,17,0,0,1,56.43,173L1.75,63.92A17.4,17.4,0,0,1,9.6,40.66a17.15,17.15,0,0,1,23,7.85L71.84,127,111.1,50.55A17.1,17.1,0,1,1,141.64,66L87,173A17,17,0,0,1,71.84,182.58Z"/><path class="cls-2" d="M102.45,5.32,100.89,7q-6.6,6.93-13.21,13.88a1.63,1.63,0,0,1-.71.45,1,1,0,0,1-1.12-.5,1.09,1.09,0,0,1,.24-1.32l4.7-4.95L101.67,3.08c.79-.84,1.47-.77,2.06.21a83.29,83.29,0,0,1,10.55,26.78c.43,2.13.74,4.28,1.09,6.42a1.06,1.06,0,1,1-2.08.35c-.43-2.47-.77-5-1.3-7.4a80.21,80.21,0,0,0-9.26-23.68Z"/><path class="cls-2" d="M40.91,5.23c-1,1.84-1.95,3.54-2.82,5.29A81.28,81.28,0,0,0,30.9,31.81c-.31,1.66-.53,3.34-.8,5a1,1,0,0,1-1.2,1A1.08,1.08,0,0,1,28,36.51a84.31,84.31,0,0,1,11.5-33l.16-.26c.58-.95,1.27-1,2-.23l9.4,9.89c2,2.16,4.11,4.31,6.15,6.47a1.7,1.7,0,0,1,.4.7,1,1,0,0,1-.55,1.13A1.09,1.09,0,0,1,55.8,21l-3.35-3.52L41.27,5.66Z"/><path class="cls-2" d="M48,46.83a5.7,5.7,0,1,1,5.61,5.73A5.7,5.7,0,0,1,48,46.83Z"/><path class="cls-2" d="M95.39,46.89A5.69,5.69,0,1,1,84,46.8a5.69,5.69,0,0,1,11.38.09Z"/><path class="cls-2" d="M70.78,64.27c-.39.75-.74,1.52-1.2,2.23A7.94,7.94,0,0,1,64.07,70a.64.64,0,0,1-.8-.5.66.66,0,0,1,.54-.73A20,20,0,0,0,66,68.12a6.48,6.48,0,0,0,3.41-3.91,1.06,1.06,0,0,0,.09-.25c.09-.27.29-.58.23-.82s-.41-.35-.61-.54A8.44,8.44,0,0,1,67,59.53a1.87,1.87,0,0,1,.93-2.42,6.09,6.09,0,0,1,3.72-.67,7.67,7.67,0,0,1,1.79.35,1.76,1.76,0,0,1,1.28,2.4A6.38,6.38,0,0,1,72,63a.48.48,0,0,0-.19.4c.68,2.24,1.82,4.11,4.15,5,.54.2,1.12.31,1.68.46s.72.51.52.9a.66.66,0,0,1-.82.32,8.15,8.15,0,0,1-6.33-5.13c-.08-.2-.17-.4-.26-.6C70.79,64.27,70.77,64.26,70.78,64.27Z"/><path class="cls-2" d="M51.13,64.9h.08c.57,0,.82.13.85.52s-.19.59-.74.67c-3.51.51-7,1-10.55,1.53-2.24.34-4.47.75-6.7,1.16-7,1.3-14,2.91-20.93,4.77-.49.13-.82,0-.92-.39s.09-.7.62-.83C18,71.1,23,69.79,28.18,68.68,32.54,67.74,37,67,41.36,66.24c2.78-.47,5.59-.78,8.39-1.17.46-.06.91-.14,1.37-.21Z"/><path class="cls-2" d="M131.2,73a.62.62,0,0,1-.84.56c-1.18-.3-2.34-.63-3.51-.91-4-.94-8-1.88-12-2.79-1.82-.41-3.66-.79-5.5-1.12q-4.71-.83-9.43-1.56c-2.08-.33-4.18-.59-6.27-.88L92,66.07c-.48-.07-.7-.31-.65-.71s.33-.57.81-.5c2.16.3,4.33.56,6.48.91,4.85.79,9.69,1.56,14.51,2.48,5.87,1.11,11.67,2.51,17.43,4.08C131,72.45,131.21,72.65,131.2,73Z"/><path class="cls-2" d="M126.6,54.59h2.1c.51,0,.79.19.81.59s-.23.65-.77.67c-2.56.13-5.13.21-7.69.39-2.86.21-5.72.45-8.57.82-4,.52-8.07,1.15-12.1,1.8-1.88.3-3.74.72-5.61,1.1-.78.16-1.56.34-2.34.51a.68.68,0,0,1-.88-.47c-.07-.34.14-.62.59-.72,2.79-.58,5.57-1.24,8.38-1.72,3.87-.66,7.76-1.25,11.66-1.73,3.43-.42,6.88-.64,10.32-.93,1.37-.11,2.73-.16,4.1-.24Z"/><path class="cls-2" d="M18.17,54.67c3,.25,6.11.44,9.15.75,3.22.33,6.44.66,9.63,1.18,4.62.75,9.2,1.67,13.79,2.53a4.54,4.54,0,0,1,.63.18.57.57,0,0,1,.47.68.59.59,0,0,1-.71.48c-1.13-.22-2.25-.47-3.37-.7C43.2,58.82,38.63,58,34,57.45c-4.25-.49-8.52-.9-12.78-1.28-2.05-.18-4.11-.21-6.16-.3l-.44,0c-.5,0-.76-.28-.73-.67s.31-.6.77-.59l2.49.1,1,.05Z"/><path class="cls-2" d="M40.6,63c-1.71,0-3.54.1-5.38.17-2.16.07-4.33.13-6.49.26-2.55.15-5.09.35-7.63.56-2.17.18-4.33.42-6.49.63-.49,0-.8-.15-.83-.54s.22-.66.72-.7c4.15-.36,8.3-.76,12.45-1.07,2.66-.2,5.32-.32,8-.4s5.62-.09,8.43-.1c2.07,0,4.14,0,6.21.06.58,0,1.16,0,1.74,0s.72.27.71.61a.63.63,0,0,1-.73.58c-1.78,0-3.56-.07-5.34-.09S42.47,63,40.6,63Z"/><path class="cls-2" d="M109.74,63.25c-1.38-.06-2.76-.13-4.15-.17s-2.7,0-4,0l-6.69.05-2.7.06c-.5,0-.77-.18-.78-.56s.26-.66.77-.67c2.23,0,4.46-.08,6.69-.09s4.46,0,6.69,0c1.63,0,3.26,0,4.89.15q6.72.41,13.43.89c1.7.12,3.39.33,5.09.51.48.05.73.32.67.73s-.32.55-.81.51c-5-.41-9.93-.83-14.9-1.22-1.38-.11-2.76-.16-4.14-.23Z"/><path class="cls-1" d="M275.5,120.05H185.93c4.07,16.58,18.9,29.38,36.93,29.38,9.31,0,23-3.78,30.54-11.05a17.46,17.46,0,0,1,24.72.29c7,6.69,6.69,18-.29,24.72-16,15.41-38.39,20.65-55,20.65a72.62,72.62,0,0,1-72.71-73c0-39.85,32.29-73,72.71-73a63.71,63.71,0,0,1,12.8,1.16c19.77,3.78,36.64,16,47.11,33.45,4.66,8.14,9.89,18.9,9.31,28.5,0,2.62-1.16,5.53-2.33,8.43C287.43,115.11,282.48,120.05,275.5,120.05ZM190.87,90.68h61.66C246.71,79.63,236,73.23,222.86,73.23A37.72,37.72,0,0,0,190.87,90.68Z"/><path class="cls-3" d="M178.16,320.65c-37.9,0-68.72-28.7-68.72-63.77s30.82-63.59,68.72-63.59a71.74,71.74,0,0,1,46.05,16.28,9.43,9.43,0,0,1,.73,14.26,11.47,11.47,0,0,1-15.23.67,49.43,49.43,0,0,0-31.55-11.08c-25.93,0-47,19.47-47,43.46s21,43.47,47,43.47a48.8,48.8,0,0,0,32.09-11.58,11.52,11.52,0,0,1,15.41.5,9.7,9.7,0,0,1-.54,14.26A72.79,72.79,0,0,1,178.16,320.65Z"/><path class="cls-1" d="M407.63,40.12H319.84c-8.47,0-15.36,6.51-15.36,14.51s6.89,14.68,15.36,14.68h28.35v97c0,8.23,6.83,14.68,15.54,14.68,8.47,0,15.36-6.59,15.36-14.68v-97h28.54c8.46,0,15.35-6.59,15.35-14.68S416.09,40.12,407.63,40.12Z"/><path class="cls-1" d="M350.65,267.51C345,247,323.5,234.13,320.87,232.62c-3.12-2.49-35.1-27-61.69-10.61-3.25,2-7.93,6.3-10.72,8.86l-.56.51c-17.56,16.08-20.24,35.36-8.19,59,11.34,22.21,33.13,29.82,42,32.08A78.81,78.81,0,0,0,301,325c19.52,0,34.65-9.13,45.13-27.28C351.9,287.73,353.42,277.56,350.65,267.51ZM299.15,301c-5.94-2.41-9.6-8.95-10-11.94a7,7,0,0,0-1.95-3.71l-.12-.14a10.76,10.76,0,0,0-8.48-3.69A17.21,17.21,0,0,0,275,282c-4.37.95-10.59-1.46-14.09-4.33-10.73-8.83-2.91-22.74-2.54-23.37,3.24-5.84,7.55-9.45,12.8-10.74,8.18-2,18,1.85,24.54,6.13,1.71,1.12,4.12,2.4,6.26,3.53l1.87,1c11.83,6.42,18.49,13.86,19.81,22.12,1.65,10.39-5.76,19.16-6.81,20.34C310.38,301.68,304.44,303.15,299.15,301Z"/><ellipse class="cls-1" cx="286.78" cy="199.4" rx="15.72" ry="18.71" transform="translate(70.91 474) rotate(-86.64)"/><ellipse class="cls-1" cx="332.99" cy="211.34" rx="15.72" ry="18.71" transform="translate(-1.63 420.1) rotate(-64.36)"/><ellipse class="cls-1" cx="365.69" cy="246.4" rx="15.72" ry="18.71" transform="translate(-74.62 270.23) rotate(-37.07)"/><path class="cls-4" d="M102.45,5.32,100.89,7q-6.6,6.93-13.21,13.88a1.63,1.63,0,0,1-.71.45,1,1,0,0,1-1.12-.5,1.09,1.09,0,0,1,.24-1.32l4.7-4.95L101.67,3.08c.79-.84,1.47-.77,2.06.21a83.29,83.29,0,0,1,10.55,26.78c.43,2.13.74,4.28,1.09,6.42a1.06,1.06,0,1,1-2.08.35c-.43-2.47-.77-5-1.3-7.4a80.21,80.21,0,0,0-9.26-23.68Z"/><path class="cls-4" d="M40.91,5.23c-1,1.84-1.95,3.54-2.82,5.29A81.28,81.28,0,0,0,30.9,31.81c-.31,1.66-.53,3.34-.8,5a1,1,0,0,1-1.2,1A1.08,1.08,0,0,1,28,36.51a84.31,84.31,0,0,1,11.5-33l.16-.26c.58-.95,1.27-1,2-.23l9.4,9.89c2,2.16,4.11,4.31,6.15,6.47a1.7,1.7,0,0,1,.4.7,1,1,0,0,1-.55,1.13A1.09,1.09,0,0,1,55.8,21l-3.35-3.52L41.27,5.66Z"/><path class="cls-4" d="M48,46.83a5.7,5.7,0,1,1,5.61,5.73A5.7,5.7,0,0,1,48,46.83Z"/><path class="cls-4" d="M95.39,46.89A5.69,5.69,0,1,1,84,46.8a5.69,5.69,0,0,1,11.38.09Z"/><path class="cls-4" d="M70.78,64.27c-.39.75-.74,1.52-1.2,2.23A7.94,7.94,0,0,1,64.07,70a.64.64,0,0,1-.8-.5.66.66,0,0,1,.54-.73A20,20,0,0,0,66,68.12a6.48,6.48,0,0,0,3.41-3.91,1.06,1.06,0,0,0,.09-.25c.09-.27.29-.58.23-.82s-.41-.35-.61-.54A8.44,8.44,0,0,1,67,59.53a1.87,1.87,0,0,1,.93-2.42,6.09,6.09,0,0,1,3.72-.67,7.67,7.67,0,0,1,1.79.35,1.76,1.76,0,0,1,1.28,2.4A6.38,6.38,0,0,1,72,63a.48.48,0,0,0-.19.4c.68,2.24,1.82,4.11,4.15,5,.54.2,1.12.31,1.68.46s.72.51.52.9a.66.66,0,0,1-.82.32,8.15,8.15,0,0,1-6.33-5.13c-.08-.2-.17-.4-.26-.6C70.79,64.27,70.77,64.26,70.78,64.27Z"/><path class="cls-4" d="M51.13,64.9h.08c.57,0,.82.13.85.52s-.19.59-.74.67c-3.51.51-7,1-10.55,1.53-2.24.34-4.47.75-6.7,1.16-7,1.3-14,2.91-20.93,4.77-.49.13-.82,0-.92-.39s.09-.7.62-.83C18,71.1,23,69.79,28.18,68.68,32.54,67.74,37,67,41.36,66.24c2.78-.47,5.59-.78,8.39-1.17.46-.06.91-.14,1.37-.21Z"/><path class="cls-4" d="M131.2,73a.62.62,0,0,1-.84.56c-1.18-.3-2.34-.63-3.51-.91-4-.94-8-1.88-12-2.79-1.82-.41-3.66-.79-5.5-1.12q-4.71-.83-9.43-1.56c-2.08-.33-4.18-.59-6.27-.88L92,66.07c-.48-.07-.7-.31-.65-.71s.33-.57.81-.5c2.16.3,4.33.56,6.48.91,4.85.79,9.69,1.56,14.51,2.48,5.87,1.11,11.67,2.51,17.43,4.08C131,72.45,131.21,72.65,131.2,73Z"/><path class="cls-4" d="M126.6,54.59h2.1c.51,0,.79.19.81.59s-.23.65-.77.67c-2.56.13-5.13.21-7.69.39-2.86.21-5.72.45-8.57.82-4,.52-8.07,1.15-12.1,1.8-1.88.3-3.74.72-5.61,1.1-.78.16-1.56.34-2.34.51a.68.68,0,0,1-.88-.47c-.07-.34.14-.62.59-.72,2.79-.58,5.57-1.24,8.38-1.72,3.87-.66,7.76-1.25,11.66-1.73,3.43-.42,6.88-.64,10.32-.93,1.37-.11,2.73-.16,4.1-.24Z"/><path class="cls-4" d="M18.17,54.67c3,.25,6.11.44,9.15.75,3.22.33,6.44.66,9.63,1.18,4.62.75,9.2,1.67,13.79,2.53a4.54,4.54,0,0,1,.63.18.57.57,0,0,1,.47.68.59.59,0,0,1-.71.48c-1.13-.22-2.25-.47-3.37-.7C43.2,58.82,38.63,58,34,57.45c-4.25-.49-8.52-.9-12.78-1.28-2.05-.18-4.11-.21-6.16-.3l-.44,0c-.5,0-.76-.28-.73-.67s.31-.6.77-.59l2.49.1,1,.05Z"/><path class="cls-4" d="M40.6,63c-1.71,0-3.54.1-5.38.17-2.16.07-4.33.13-6.49.26-2.55.15-5.09.35-7.63.56-2.17.18-4.33.42-6.49.63-.49,0-.8-.15-.83-.54s.22-.66.72-.7c4.15-.36,8.3-.76,12.45-1.07,2.66-.2,5.32-.32,8-.4s5.62-.09,8.43-.1c2.07,0,4.14,0,6.21.06.58,0,1.16,0,1.74,0s.72.27.71.61a.63.63,0,0,1-.73.58c-1.78,0-3.56-.07-5.34-.09S42.47,63,40.6,63Z"/><path class="cls-4" d="M109.74,63.25c-1.38-.06-2.76-.13-4.15-.17s-2.7,0-4,0l-6.69.05-2.7.06c-.5,0-.77-.18-.78-.56s.26-.66.77-.67c2.23,0,4.46-.08,6.69-.09s4.46,0,6.69,0c1.63,0,3.26,0,4.89.15q6.72.41,13.43.89c1.7.12,3.39.33,5.09.51.48.05.73.32.67.73s-.32.55-.81.51c-5-.41-9.93-.83-14.9-1.22-1.38-.11-2.76-.16-4.14-.23Z"/></svg>