<?xml version="1.0" encoding="utf-8"?>
<!-- Generator: Adobe Illustrator 24.0.0, SVG Export Plug-In . SVG Version: 6.00 Build 0)  -->
<svg version="1.1" id="Capa_1" xmlns="http://www.w3.org/2000/svg" xmlns:xlink="http://www.w3.org/1999/xlink" x="0px" y="0px"
	 viewBox="0 0 337.6 317.6" style="enable-background:new 0 0 337.6 317.6;" xml:space="preserve">
<style type="text/css">
	.st0{fill:#0D5968;}
</style>
<title>huellaVetco</title>
<g>
	<path class="st0" d="M265.9,188.4c-12.7-46-61-75-66.9-78.4c-7-5.6-78.9-60.7-138.6-23.8C53,90.6,42.5,100.3,36.3,106l-1.3,1.2
		c-39.5,36.1-45.5,79.5-18.4,132.5c25.5,49.9,74.4,67,94.5,72.1c14.1,3.7,28.6,5.7,43.2,5.8c43.9,0,77.9-20.5,101.4-61.3
		C268.7,233.8,272.1,211,265.9,188.4z M150.1,263.6c-13.3-5.4-21.6-20.1-22.4-26.8c-0.5-3.8-2.8-6.5-4.4-8.3l-0.3-0.3
		c-4.7-5.5-11.2-8.3-19-8.3c-2.8,0-5.5,0.3-8.2,0.9c-9.8,2.2-23.8-3.3-31.7-9.7c-24.1-19.8-6.5-51.1-5.7-52.5
		c7.3-13.1,17-21.2,28.8-24.1c18.4-4.5,40.5,4.1,55.1,13.8c3.8,2.5,9.3,5.4,14,7.9c1.5,0.8,3,1.6,4.2,2.2
		c26.6,14.4,41.5,31.1,44.5,49.7c3.7,23.3-12.9,43-15.3,45.7C175.4,265.2,162,268.5,150.1,263.6z"/>
	
		<ellipse transform="matrix(5.860947e-02 -0.9983 0.9983 5.860947e-02 79.9089 155.4012)" class="st0" cx="122.4" cy="35.3" rx="35.3" ry="42"/>
	<ellipse transform="matrix(0.4327 -0.9015 0.9015 0.4327 72.249 239.1944)" class="st0" cx="226.2" cy="62.2" rx="35.3" ry="42"/>
	<ellipse transform="matrix(0.7979 -0.6028 0.6028 0.7979 -24.4026 209.1197)" class="st0" cx="299.7" cy="141" rx="35.3" ry="42"/>
</g>
</svg>
