<svg id="Capa_1" data-name="Capa 1" xmlns="http://www.w3.org/2000/svg" viewBox="0 0 337.56 317.59"><defs><style>.cls-1{fill:#fff;}</style></defs><title>huellaVetco</title><path class="cls-1" d="M265.86,188.38c-12.69-46-61-75-66.9-78.39-7-5.61-78.87-60.74-138.62-23.85C53,90.65,42.53,100.29,36.25,106.05L35,107.21c-39.45,36.11-45.46,79.45-18.39,132.5,25.48,49.91,74.45,67,94.49,72.07a176.3,176.3,0,0,0,43.19,5.81c43.87,0,77.88-20.51,101.43-61.3C268.68,233.82,272.1,211,265.86,188.38ZM150.15,263.65c-13.34-5.41-21.56-20.11-22.42-26.82-.49-3.84-2.84-6.54-4.39-8.33l-.28-.32c-4.74-5.49-11.22-8.29-19-8.29a38.59,38.59,0,0,0-8.24.94C86,223,72,217.56,64.13,211.09,40,191.27,57.6,160,58.42,158.58c7.28-13.11,17-21.23,28.78-24.13,18.37-4.52,40.53,4.15,55.14,13.77,3.82,2.52,9.26,5.4,14,7.93,1.53.81,3,1.56,4.21,2.24,26.57,14.42,41.54,31.14,44.5,49.71,3.73,23.33-12.94,43-15.3,45.69C175.37,265.16,162,268.47,150.15,263.65Z"/><ellipse class="cls-1" cx="122.36" cy="35.34" rx="35.31" ry="42.04" transform="translate(79.9 155.41) rotate(-86.64)"/><ellipse class="cls-1" cx="226.18" cy="62.18" rx="35.31" ry="42.04" transform="translate(72.26 239.19) rotate(-64.36)"/><ellipse class="cls-1" cx="299.66" cy="140.95" rx="35.31" ry="42.04" transform="translate(-24.4 209.12) rotate(-37.07)"/></svg>