<?xml version="1.0" encoding="utf-8"?>
<!-- Generator: Adobe Illustrator 24.0.0, SVG Export Plug-In . SVG Version: 6.00 Build 0)  -->
<svg version="1.1" id="Capa_1" xmlns="http://www.w3.org/2000/svg" xmlns:xlink="http://www.w3.org/1999/xlink" x="0px" y="0px"
	 viewBox="0 0 86 86" style="enable-background:new 0 0 86 86;" xml:space="preserve">
<style type="text/css">
	.st0{fill:#0D5968;}
	.st1{fill:#FFFFFF;}
</style>
<circle class="st0" cx="43" cy="43" r="43"/>
<circle class="st1" cx="43" cy="43" r="37.2"/>
<g>
	<path class="st0" d="M46.1,13.4c0.4,0.1,0.8,0.2,1.3,0.3c3.8,1.1,6.5,4.5,6.5,8.5c0,4.3,0,8.6,0,12.9c0,1.2-0.3,2.4-0.9,3.5
		c-1.4,2.6-4.7,3.1-6.8,1c-2.4-2.3-3-6.5-1.3-9.4c1.4-2.3,4.3-2.8,6.3-1.1c0.2,0.1,0.4,0.3,0.5,0.4c0,0,0.1-0.1,0.1-0.1
		c0-2.6,0.1-5.3-0.1-7.9c-0.2-3.2-2.4-5.7-5.5-6.1c-2.2-0.3-4.4-0.3-6.6,0c-3.3,0.5-5.5,3.4-5.6,6.8c0,3-0.1,5.9,0,8.9
		c0.1,2.1-0.7,2.9-2.9,2.9c-2.9-0.1-5.9,0-8.8,0c-3.4,0-6.1,2.2-6.9,5.5c-0.1,0.6-0.2,1.1-0.2,1.7c0,1.5-0.1,2.9,0.1,4.4
		c0.4,3.7,3.3,6.2,7,6.2c3.1,0,6.2,0,9.3,0c1.6,0,2.3,0.7,2.3,2.4c0,3.1,0,6.2,0,9.3c0,3.4,2.2,6.1,5.5,6.9c0.6,0.1,1.2,0.2,1.8,0.2
		c1.4,0,2.9,0.1,4.3-0.1c3.6-0.4,6-3,6.2-6.6c0.1-1.6,0-3.2,0-4.9c-0.2,0.1-0.4,0.2-0.6,0.3c-2.2,1-4.6,0.6-6.1-1.1
		c-1-1.2-1.3-2.6-1.2-4c0.1-1.9,0.8-3.4,2-4.9c0.8-0.9,1.5-1.9,2.2-2.9c0.4-0.5,0.7-1.1,1-1.6c1.5-2.2,3.7-3,6.3-2.8
		c2.2,0.2,3.9,1.2,5.1,3.1c1,1.7,2.2,3.2,3.4,4.8c1.7,2,2,4.3,1.3,6.8c-0.6,1.8-2.3,3-4.1,3.1c-1.5,0-2.8-0.3-4-1.2
		c-1-0.7-2.1-0.9-3.3-0.6c0,1.9,0,3.7,0,5.6c0,4.3-2.8,7.9-7,8.8c-0.6,0.1-1.1,0.2-1.7,0.2c-1.9,0-3.7,0.1-5.6-0.1
		c-3.6-0.4-6.8-3.7-7.3-7.4c-0.1-1-0.1-2.1-0.1-3.1c0-2.6,0-5.3,0-7.9c0,0,0-0.1,0-0.2c-0.2,0-0.4,0-0.6,0c-3,0-6,0-9,0
		c-4.7,0-8.2-3-9-7.5c0-0.1-0.1-0.1-0.1-0.2c0-2.1,0-4.2,0-6.2c0-0.1,0.1-0.1,0.1-0.2c0.8-4.6,4.4-7.5,9-7.5c3,0,6,0,9,0
		c0.2,0,0.4,0,0.6,0c0-0.3,0-0.5,0-0.7c0-3.1,0-6.2,0-9.2c0-3.5,2.2-6.8,5.5-8.1c0.7-0.3,1.5-0.5,2.2-0.7C42,13.4,44,13.4,46.1,13.4
		z M55.1,44c-2.2,0-3.2,0.5-4.4,2.2c-0.2,0.3-0.3,0.6-0.5,0.8c-0.9,1.3-1.8,2.6-2.8,3.8c-1,1.2-1.5,2.5-1.4,4c0.1,2,1.3,3.1,3.1,2.9
		c0.7-0.1,1.4-0.3,2-0.7c2.5-1.6,4.9-1.7,7.4,0c0.8,0.5,1.6,0.8,2.5,0.7c1.2,0,2.2-0.8,2.5-2c0.4-1.7,0.2-3.3-1-4.7
		c-1.4-1.6-2.5-3.2-3.6-5C58,44.7,56.6,43.9,55.1,44z M51.9,35.7c-0.1-2.1-0.5-3.5-1.7-4.7c-1.3-1.2-3-0.9-3.7,0.7
		c-1.1,2.2-0.6,5,1.2,6.7c1.1,1,2.9,0.8,3.5-0.5C51.5,37,51.7,36.1,51.9,35.7z"/>
	<path class="st0" d="M55.8,35.1c0.1-2.3,0.8-4.3,2.6-5.8c2.2-1.8,5.2-1.2,6.5,1.3c1.5,2.9,1,6.7-1.3,9c-2.1,2.2-5.5,1.7-6.9-1
		C56.1,37.5,55.8,36.3,55.8,35.1z M57.8,35c0,1.1,0.3,2.1,0.7,2.9c0.7,1.3,2.5,1.5,3.5,0.5c1.8-1.7,2.2-4.6,1.1-6.8
		c-0.8-1.6-2.5-1.9-3.7-0.7C58.3,32.1,57.9,33.5,57.8,35z"/>
	<path class="st0" d="M45.4,44c0,2.1-1.2,3.6-3,3.9c-1.2,0.2-2.2-0.3-3.1-1c-1.7-1.3-2.5-3.8-2-5.8c0.6-2.2,2.6-3.2,4.7-2.4
		C43.9,39.5,45.4,41.7,45.4,44z M43.4,44c0-1.6-0.9-3-2.3-3.5c-1-0.3-1.7,0-1.9,1c-0.4,1.3,0.2,2.9,1.4,3.8c0.6,0.4,1.2,0.7,1.9,0.4
		C43.2,45.5,43.4,44.8,43.4,44z"/>
	<path class="st0" d="M64.2,44c0-2.3,1.5-4.5,3.5-5.3c2-0.8,4,0.1,4.6,2.2c1,3-1.1,6.4-4.2,7c-1.7,0.3-3.3-0.9-3.7-2.7
		C64.3,44.8,64.3,44.4,64.2,44z M70.6,42.3c-0.1-0.7-0.2-1.3-0.8-1.7c-0.7-0.4-1.3-0.1-1.8,0.3c-1.2,0.8-1.8,2-1.6,3.5
		c0.1,1.6,1.4,2.2,2.7,1.2C70.1,44.6,70.5,43.6,70.6,42.3z"/>
	<path class="st0" d="M17.3,40.8c0-2.5,2.3-4.7,4.8-4.7c0.6,0,1.1,0.3,1.1,0.9c0.1,0.6-0.3,1-1,1.1c-1.8,0.3-2.7,1.1-2.9,2.9
		c-0.1,0.7-0.5,1.1-1,1.1C17.7,42,17.3,41.5,17.3,40.8z"/>
	<path class="st0" d="M26.7,38.1c-0.2,0-0.4,0-0.6,0c-0.5-0.1-0.9-0.5-0.9-1c0-0.5,0.4-1,0.9-1c0.3,0,0.7,0,1,0c0.6,0,1,0.4,1,1
		c0,0.6-0.3,1-0.9,1C27.1,38.1,26.9,38,26.7,38.1C26.7,38.1,26.7,38.1,26.7,38.1z"/>
</g>
</svg>
