<?xml version="1.0" encoding="utf-8"?>
<!-- Generator: Adobe Illustrator 24.0.0, SVG Export Plug-In . SVG Version: 6.00 Build 0)  -->
<svg version="1.1" id="Capa_1" xmlns="http://www.w3.org/2000/svg" xmlns:xlink="http://www.w3.org/1999/xlink" x="0px" y="0px"
	 viewBox="0 0 86 86" style="enable-background:new 0 0 86 86;" xml:space="preserve">
<style type="text/css">
	.st0{fill:#0D5968;}
	.st1{fill:#FFFFFF;}
</style>
<circle class="st0" cx="43" cy="43" r="43"/>
<circle class="st1" cx="43" cy="43" r="37.2"/>
<g>
	<path class="st0" d="M17.9,27.3c2.3-2.3,4.6-4.6,7-7c1.7-1.7,3.9-1.7,5.5,0c4.6,4.6,9.3,9.3,13.9,13.9c0.1,0.1,0.2,0.3,0.4,0.5
		c0.3-0.2,0.5-0.4,0.8-0.6c6.3-5.2,12.6-10.4,18.8-15.6c1.5-1.2,3.5-0.4,3.8,1.2c0.2,0.8-0.1,1.4-0.6,2c-2,2.5-4,5-6,7.4
		c-3.2,3.9-6.5,7.8-9.8,11.6c-0.1,0.2-0.3,0.3-0.5,0.6c0.3,0.3,0.6,0.5,0.9,0.8c4.5,4.5,9,9,13.4,13.4c1.8,1.8,1.8,3.9,0,5.7
		c-2.1,2.1-4.3,4.3-6.4,6.4c-0.2,0.2-0.3,0.3-0.5,0.5c-0.2,0-0.4,0-0.6,0c-0.6-0.6-0.6-0.9,0-1.5c1.4-1.4,2.8-2.8,4.2-4.2
		c0.1-0.1,0.2-0.3,0.3-0.3c-0.4-0.4-0.7-0.7-1-1.1c-0.8,0.8-1.6,1.6-2.4,2.4c-0.8,0.8-1.5,1.5-2.3,2.3c-0.2,0.2-0.5,0.3-0.8,0.2
		c-0.2,0-0.5-0.3-0.5-0.5c0-0.3,0.2-0.6,0.3-0.8c1.4-1.4,2.8-2.9,4.3-4.3c0.1-0.1,0.3-0.2,0.4-0.3c-0.5-0.5-0.8-0.8-1.1-1.2
		c-1.5,1.5-2.9,2.9-4.4,4.4c-0.2,0.2-0.3,0.3-0.5,0.5c-0.3,0.2-0.7,0.2-0.9,0c-0.3-0.3-0.3-0.6-0.1-1c0.1-0.1,0.2-0.2,0.3-0.4
		c1.5-1.5,3-3,4.5-4.5c-0.4-0.4-0.7-0.7-1.1-1.1c-1,1-2,2-3,3c-0.6,0.6-1.1,1.2-1.7,1.7c-0.3,0.3-0.7,0.3-1.1,0
		c-0.3-0.3-0.3-0.7,0-1.1c0.1-0.1,0.2-0.2,0.3-0.3c1.4-1.4,2.7-2.7,4.1-4c0.1-0.1,0.3-0.2,0.5-0.3c-0.5-0.4-0.8-0.8-1.1-1.1
		c-0.8,0.8-1.5,1.5-2.3,2.3c-0.8,0.8-1.6,1.6-2.5,2.5c-0.4,0.3-0.8,0.3-1.1,0c-0.3-0.3-0.3-0.7,0.1-1.1c0.1-0.1,0.2-0.2,0.3-0.3
		c1.4-1.4,2.7-2.7,4.1-4.1c0.1-0.1,0.2-0.2,0.3-0.3c-0.4-0.4-0.7-0.7-1-1.1c-1.5,1.5-3,3-4.5,4.5c-0.5,0.5-0.9,0.6-1.3,0.3
		c-0.4-0.4-0.3-0.8,0.3-1.3c1.5-1.5,3-3,4.5-4.4c-0.4-0.4-0.7-0.7-1.1-1.1c-1.4,1.4-2.7,2.8-4.1,4.1c-0.2,0.2-0.5,0.5-0.7,0.7
		c-0.3,0.2-0.7,0.2-0.9-0.1C45,55,45,54.7,45.2,54.4c0.1-0.1,0.2-0.2,0.3-0.4c1.4-1.4,2.8-2.8,4.2-4.2c0.1-0.1,0.2-0.3,0.3-0.4
		c-0.3-0.4-0.7-0.7-1.1-1.1c-0.1,0.2-0.2,0.3-0.3,0.5c-1.4,1.4-2.8,2.8-4.2,4.2c-0.4,0.4-0.9,0.5-1.2,0.2c-0.3-0.3-0.3-0.7,0.1-1.2
		c1.2-1.2,2.4-2.5,3.7-3.7c0.3-0.3,0.7-0.6,1-0.9c-0.4-0.4-0.8-0.8-1.1-1.1c-3.1,3.5-6.2,7-9.3,10.5c0.1,0.1,0.2,0.3,0.3,0.4
		c3.1,3.7,1.4,9.3-3.3,10.6c-0.3,0.1-0.7,0.2-1,0.3c-0.5,0-1,0-1.6,0c-0.1,0-0.1-0.1-0.2-0.1c-2.9-0.5-5-2.6-5.5-5.5c-0.1-1,0-2,0-3
		c0,0-0.2,0-0.3,0.1c-3.4,0.8-6.7-1.1-7.8-4.4c-0.1-0.4-0.2-0.9-0.3-1.3c0-0.5,0-1,0-1.6c0-0.1,0.1-0.2,0.1-0.3
		c0.3-1.5,1-2.9,2.2-3.9c2.8-2.4,7-2,9.4,0.8c0.3,0.4,0.3,0.8,0,1.1c-0.3,0.3-0.8,0.3-1.1,0c-0.1-0.1-0.1-0.2-0.2-0.3
		c-1-1-2.2-1.6-3.6-1.6c-2.3-0.1-4.4,1.4-5.1,3.6c-0.7,2.2,0.2,4.6,2.1,5.8c2,1.3,4.5,1.1,6.3-0.4c0.9-0.8,1.8-1.7,2.7-2.7
		c1.6-1.7,1.7-4.3,0.3-6.2c-0.4-0.6-0.4-0.9,0.1-1.4c2.6-2.3,5.2-4.6,7.8-6.9c0.3-0.3,0.6-0.5,0.8-0.7c-0.4-0.4-0.7-0.7-1.1-1.1
		c-0.9,0.9-1.8,1.8-2.7,2.7c-0.6,0.6-1.2,1.3-1.9,1.9c-0.4,0.4-0.8,0.5-1.2,0.1c-0.3-0.3-0.3-0.7,0.1-1.2c0.1-0.1,0.1-0.1,0.2-0.2
		c1.4-1.4,2.7-2.7,4.1-4.1c0.1-0.1,0.2-0.3,0.3-0.3c-0.3-0.4-0.7-0.7-1-1.1c-0.1,0.1-0.2,0.2-0.4,0.4c-1.4,1.4-2.8,2.8-4.2,4.2
		c-0.4,0.4-0.9,0.5-1.2,0.2c-0.4-0.3-0.3-0.8,0.2-1.2c0.5-0.5,1.1-1.1,1.6-1.6c1-1,2-2,3-3c-0.4-0.4-0.7-0.7-1-1.1
		c-1.6,1.6-3.1,3.1-4.7,4.7c-0.4,0.4-0.8,0.4-1.2,0.1c-0.3-0.3-0.3-0.8,0.1-1.2c1.2-1.2,2.4-2.4,3.6-3.6c0.3-0.3,0.7-0.7,1-1
		c-0.4-0.4-0.7-0.7-1.1-1.1c-0.1,0.1-0.3,0.3-0.4,0.4c-1.4,1.4-2.7,2.7-4.1,4.1c-0.1,0.1-0.2,0.3-0.4,0.4c-0.3,0.2-0.7,0.2-0.9-0.1
		c-0.3-0.3-0.3-0.6-0.1-0.9c0.1-0.1,0.2-0.2,0.3-0.4c1.4-1.4,2.8-2.8,4.2-4.2c0.1-0.1,0.2-0.3,0.3-0.3c-0.4-0.4-0.7-0.7-1-1.1
		c-0.1,0.2-0.2,0.3-0.3,0.4c-1.3,1.4-2.7,2.7-4.1,4.1c-0.1,0.1-0.2,0.2-0.2,0.2c-0.4,0.4-0.8,0.4-1.1,0.1c-0.3-0.3-0.3-0.7,0.1-1.1
		c1.4-1.4,2.9-2.9,4.3-4.3c0.1-0.1,0.3-0.2,0.4-0.3c-0.5-0.5-0.8-0.8-1.1-1.2c-1.5,1.5-3,3-4.4,4.5c-0.1,0.1-0.3,0.3-0.5,0.4
		c-0.3,0.2-0.7,0.2-0.9-0.1C22,32,22,31.7,22.3,31.3c0.1-0.1,0.2-0.2,0.3-0.4c1.5-1.5,3-3,4.5-4.5c-0.4-0.4-0.7-0.7-1.1-1.1
		c-0.1,0.1-0.2,0.3-0.3,0.4c-1.4,1.4-2.8,2.8-4.2,4.2c-0.2,0.2-0.5,0.4-0.7,0.4c-0.2,0-0.5-0.3-0.6-0.5c-0.1-0.2,0-0.6,0.2-0.8
		c1.4-1.5,2.9-2.9,4.3-4.3c0.1-0.1,0.2-0.3,0.3-0.3c-0.3-0.4-0.7-0.7-1-1c-0.1,0.1-0.2,0.2-0.4,0.4c-1.4,1.4-2.8,2.8-4.2,4.2
		c-0.6,0.6-0.9,0.6-1.5,0C17.9,27.7,17.9,27.5,17.9,27.3z M66,21.2c0,0-0.1-0.1-0.1-0.1c-0.1,0.2-0.3,0.4-0.4,0.5
		c-9.2,9.2-18.4,18.4-27.6,27.6c-0.1,0.1-0.3,0.3-0.4,0.4c-0.3,0.2-0.7,0.2-1-0.1c-0.3-0.3-0.3-0.6,0-1c0.1-0.1,0.2-0.2,0.3-0.4
		c9.2-9.2,18.5-18.5,27.7-27.7c0.1-0.1,0.3-0.3,0.5-0.5c-2.1,1.2-31.4,26-32.6,27.7c1.7,2.8,1.1,6.2-1.3,8.4
		c-0.8,0.7-1.6,1.5-2.2,2.3c-1.4,1.7-1.5,4.1-0.3,6c1.2,1.8,3.5,2.7,5.6,2.1c2-0.5,3.2-1.8,3.7-3.8c0.5-2-0.1-3.6-1.6-5
		c-0.6-0.5-0.6-0.8-0.1-1.4c0.4-0.5,0.8-0.9,1.2-1.4c-1-0.7-1.7-1.6-1.9-2.7c-0.1-0.6,0.1-1,0.5-1.1c0.5-0.1,0.8,0.2,0.9,0.8
		c0.2,0.9,0.7,1.5,1.5,1.9C47.9,43.1,57.1,32.2,66,21.2z M48,45.1c5.3,5.3,10.6,10.5,15.9,15.9c0.2-0.2,0.4-0.5,0.7-0.7
		c1.2-1.2,1.2-2.4,0-3.6c-4.2-4.2-8.4-8.4-12.6-12.6c-0.5-0.5-1-1.1-1.6-1.6C49.5,43.3,48.7,44.2,48,45.1z M43.6,35.7
		c-0.1-0.2-0.3-0.3-0.4-0.4c-2-2-4.1-4.1-6.1-6.1c-2.6-2.6-5.2-5.2-7.8-7.8c-0.9-0.9-2.1-1-3-0.3c-0.5,0.4-0.8,0.9-1.2,1.2
		c5.2,5.2,10.5,10.5,15.7,15.7c0,0,0.1-0.1,0.1-0.1C41.9,37.2,42.7,36.4,43.6,35.7z"/>
	<path class="st0" d="M24.5,56.8c-2,0-3.7-1.7-3.6-3.7c0-2,1.7-3.7,3.8-3.7c2,0,3.6,1.7,3.6,3.7C28.2,55.2,26.5,56.8,24.5,56.8z
		 M24.5,55.3c1.2,0,2.2-1,2.2-2.2c0-1.2-1-2.2-2.2-2.2c-1.2,0-2.2,1-2.2,2.2C22.3,54.4,23.3,55.3,24.5,55.3z"/>
	<path class="st0" d="M32.8,65.1c-2,0-3.6-1.7-3.6-3.7c0-2.1,1.6-3.7,3.7-3.7c2,0,3.7,1.7,3.7,3.7C36.5,63.5,34.8,65.2,32.8,65.1z
		 M32.8,63.7c1.2,0,2.2-1,2.2-2.2c0-1.2-1-2.2-2.2-2.2c-1.2,0-2.2,1-2.2,2.2C30.7,62.7,31.6,63.7,32.8,63.7z"/>
</g>
</svg>
